@startuml classes
set namespaceSeparator none
class "AgentAwareTool" as app.tool.base.AgentAwareTool {
  agent
}
class "AgentState" as app.schema.AgentState {
  name
}
class "AppConfig" as app.config.AppConfig {
  browser_config : Optional[BrowserSettings]
  llm : Dict[str, LLMSettings]
  search_config : Optional[SearchSettings]
}
class "BaiduSearchEngine" as app.tool.search.baidu_search.BaiduSearchEngine {
  perform_search(query, num_results)
}
class "BaseAgent" as app.agent.base.BaseAgent {
  current_step : Optional[int]
  description : Optional[str]
  duplicate_threshold : int
  llm : Optional[LLM]
  max_steps : Optional[int]
  memory : Optional[Memory]
  messages
  name : Optional[str]
  next_step_prompt : Optional[str]
  state : Optional[AgentState]
  system_prompt : Optional[str]
  handle_stuck_state()
  initialize_agent() -> 'BaseAgent'
  is_stuck() -> bool
  run(request: Optional[str]) -> str
  state_context(new_state: AgentState)
  {abstract}step() -> str
  update_memory(role: ROLE_TYPE, content: str) -> None
}
class "BaseFlow" as app.flow.base.BaseFlow {
  agents : Dict[str, BaseAgent]
  primary_agent
  primary_agent_key : Optional[str]
  tools : Optional[List]
  __init__(agents: Union[BaseAgent, List[BaseAgent], Dict[str, BaseAgent]])
  add_agent(key: str, agent: BaseAgent) -> None
  {abstract}execute(input_text: str) -> str
  get_agent(key: str) -> Optional[BaseAgent]
}
class "BaseTool" as app.tool.base.BaseTool {
  description : str
  name : str
  parameters : Optional[dict]
  __call__() -> Any
  {abstract}execute() -> Any
  to_param() -> Dict
}
class "Bash" as app.tool.bash.Bash {
  _session : Optional[_BashSession]
  description : str
  name : str
  parameters : dict
  execute(command: str | None, restart: bool) -> CLIResult
}
class "BrowserSettings" as app.config.BrowserSettings {
  cdp_url : Optional[str]
  chrome_instance_path : Optional[str]
  disable_security : Optional[bool]
  extra_chromium_args : Optional[List[str]]
  headless : Optional[bool]
  proxy : Optional[ProxySettings]
  wss_url : Optional[str]
}
class "BrowserUseTool" as app.tool.browser_use_tool.BrowserUseTool {
  browser : Optional[BrowserUseBrowser]
  context : Optional[BrowserContext]
  description : str
  dom_service : Optional[DomService]
  lock : Lock
  name : str
  parameters : dict
  __del__()
  _ensure_browser_initialized() -> BrowserContext
  cleanup()
  execute(action: str, url: Optional[str], index: Optional[int], text: Optional[str], script: Optional[str], scroll_amount: Optional[int], tab_id: Optional[int]) -> ToolResult
  get_current_state() -> ToolResult
  validate_parameters(v: dict, info: ValidationInfo) -> dict
}
class "CLIResult" as app.tool.base.CLIResult {
  error
  output
}
class "Config" as app.config.AppConfig.Config {
  arbitrary_types_allowed : bool
}
class "Config" as app.config.Config {
  _config : NoneType
  _initialized : bool
  _instance : NoneType
  _lock : lock
  browser_config
  llm
  search_config
  __init__()
  __new__()
  _get_config_path() -> Path
  _load_config() -> dict
  _load_initial_config()
}
class "Config" as app.agent.base.BaseAgent.Config {
  arbitrary_types_allowed : bool
  extra : str
}
class "Config" as app.flow.base.BaseFlow.Config {
  arbitrary_types_allowed : bool
}
class "Config" as app.tool.base.BaseTool.Config {
  arbitrary_types_allowed : bool
}
class "Config" as app.tool.base.ToolResult.Config {
  arbitrary_types_allowed : bool
}
class "CreateChatCompletion" as app.tool.create_chat_completion.CreateChatCompletion {
  description : str
  name : str
  parameters : dict
  required : Optional[List[str]]
  response_type : Optional[Type]
  type_mapping : dict
  __init__(response_type: Optional[Type])
  _build_parameters() -> dict
  _create_type_schema(type_hint: Type) -> dict
  _create_union_schema(types: tuple) -> dict
  _get_type_info(type_hint: Type) -> dict
  execute(required: list | None) -> Any
}
class "DuckDuckGoSearchEngine" as app.tool.search.duckduckgo_search.DuckDuckGoSearchEngine {
  perform_search(query, num_results)
}
class "FileSaver" as app.tool.file_saver.FileSaver {
  description : str
  name : str
  parameters : dict
  execute(content: str, file_path: str, mode: str) -> str
}
class "FlowFactory" as app.flow.flow_factory.FlowFactory {
  create_flow(flow_type: FlowType, agents: Union[BaseAgent, List[BaseAgent], Dict[str, BaseAgent]]) -> BaseFlow
}
class "FlowType" as app.flow.base.FlowType {
  name
}
class "Function" as app.schema.Function {
  arguments : str
  name : str
}
class "GoogleSearchEngine" as app.tool.search.google_search.GoogleSearchEngine {
  perform_search(query, num_results)
}
class "LLM" as app.llm.LLM {
  _instances : Dict[str, 'LLM']
  api_key
  api_type
  api_version
  base_url
  client : AsyncAzureOpenAI, AsyncOpenAI
  max_input_tokens : NoneType
  max_tokens
  model
  temperature
  tokenizer : Encoding
  total_input_tokens : int
  __init__(config_name: str, llm_config: Optional[LLMSettings])
  __new__(config_name: str, llm_config: Optional[LLMSettings])
  ask(messages: List[Union[dict, Message]], system_msgs: Optional[List[Union[dict, Message]]], stream: bool, temperature: Optional[float]) -> str
  ask_tool(messages: List[Union[dict, Message]], system_msgs: Optional[List[Union[dict, Message]]], timeout: int, tools: Optional[List[dict]], tool_choice: TOOL_CHOICE_TYPE, temperature: Optional[float])
  check_token_limit(input_tokens: int) -> bool
  count_message_tokens(messages: List[dict]) -> int
  count_tokens(text: str) -> int
  format_messages(messages: List[Union[dict, Message]]) -> List[dict]
  get_limit_error_message(input_tokens: int) -> str
  update_token_count(input_tokens: int) -> None
}
class "LLMSettings" as app.config.LLMSettings {
  api_key : Optional[str]
  api_type : Optional[str]
  api_version : Optional[str]
  base_url : Optional[str]
  max_input_tokens : Optional[int]
  max_tokens : Optional[int]
  model : Optional[str]
  temperature : Optional[float]
}
class "Manus" as app.agent.manus.Manus {
  available_tools : Optional[ToolCollection]
  description : str
  max_observe : int
  max_steps : int
  name : str
  next_step_prompt : str
  system_prompt : str
  _handle_special_tool(name: str, result: Any)
}
class "Memory" as app.schema.Memory {
  max_messages : Optional[int]
  messages : Optional[List[Message]]
  add_message(message: Message) -> None
  add_messages(messages: List[Message]) -> None
  clear() -> None
  get_recent_messages(n: int) -> List[Message]
  to_dict_list() -> List[dict]
}
class "Message" as app.schema.Message {
  content : Optional[str]
  name : Optional[str]
  role : Optional[ROLE_TYPE]
  tool_call_id : Optional[str]
  tool_calls : Optional[List[ToolCall]]
  __add__(other) -> List['Message']
  __radd__(other) -> List['Message']
  assistant_message(content: Optional[str]) -> 'Message'
  from_tool_calls(tool_calls: List[Any], content: Union[str, List[str]])
  system_message(content: str) -> 'Message'
  to_dict() -> dict
  tool_message(content: str, name, tool_call_id: str) -> 'Message'
  user_message(content: str) -> 'Message'
}
class "<color:red>OpenManusError</color>" as app.exceptions.OpenManusError {
}
class "PlanStepStatus" as app.flow.base.PlanStepStatus {
  name
  get_active_statuses() -> list[str]
  get_all_statuses() -> list[str]
  get_status_marks() -> Dict[str, str]
}
class "PlanningAgent" as app.agent.planning.PlanningAgent {
  active_plan_id : Optional[str]
  available_tools : Optional[ToolCollection]
  current_step_index : Optional[int]
  description : str
  max_steps : int
  name : str
  next_step_prompt : str
  special_tool_names : Optional[List[str]]
  step_execution_tracker : Optional[Dict[str, Dict]]
  system_prompt : str
  tool_calls : Optional[List[ToolCall]]
  tool_choices : Literal
  _get_current_step_index() -> Optional[int]
  act() -> str
  create_initial_plan(request: str) -> None
  get_plan() -> str
  initialize_plan_and_verify_tools() -> 'PlanningAgent'
  run(request: Optional[str]) -> str
  think() -> bool
  update_plan_status(tool_call_id: str) -> None
}
class "PlanningFlow" as app.flow.planning.PlanningFlow {
  active_plan_id : Optional[str]
  current_step_index : Optional[int]
  executor_keys : Optional[List[str]]
  llm : Optional[LLM]
  planning_tool : Optional[PlanningTool]
  __init__(agents: Union[BaseAgent, List[BaseAgent], Dict[str, BaseAgent]])
  _create_initial_plan(request: str) -> None
  _execute_step(executor: BaseAgent, step_info: dict) -> str
  _finalize_plan() -> str
  _generate_plan_text_from_storage() -> str
  _get_current_step_info() -> tuple[Optional[int], Optional[dict]]
  _get_plan_text() -> str
  _mark_step_completed() -> None
  execute(input_text: str) -> str
  get_executor(step_type: Optional[str]) -> BaseAgent
}
class "PlanningTool" as app.tool.planning.PlanningTool {
  _current_plan_id : Optional[str]
  description : str
  name : str
  parameters : dict
  plans : dict
  _create_plan(plan_id: Optional[str], title: Optional[str], steps: Optional[List[str]]) -> ToolResult
  _delete_plan(plan_id: Optional[str]) -> ToolResult
  _format_plan(plan: Dict) -> str
  _get_plan(plan_id: Optional[str]) -> ToolResult
  _list_plans() -> ToolResult
  _mark_step(plan_id: Optional[str], step_index: Optional[int], step_status: Optional[str], step_notes: Optional[str]) -> ToolResult
  _set_active_plan(plan_id: Optional[str]) -> ToolResult
  _update_plan(plan_id: Optional[str], title: Optional[str], steps: Optional[List[str]]) -> ToolResult
  execute()
}
class "ProxySettings" as app.config.ProxySettings {
  password : Optional[str]
  server : Optional[str]
  username : Optional[str]
}
class "PythonExecute" as app.tool.python_execute.PythonExecute {
  description : str
  name : str
  parameters : dict
  _run_code(code: str, result_dict: dict, safe_globals: dict) -> None
  execute(code: str, timeout: int) -> Dict
}
class "ReActAgent" as app.agent.react.ReActAgent {
  current_step : int
  description : Optional[str]
  llm : Optional[LLM]
  max_steps : int
  memory : Optional[Memory]
  name : str
  next_step_prompt : Optional[str]
  state
  system_prompt : Optional[str]
  {abstract}act() -> str
  step() -> str
  {abstract}think() -> bool
}
class "Role" as app.schema.Role {
  name
}
class "SWEAgent" as app.agent.swe.SWEAgent {
  available_tools
  bash : Optional[Bash]
  description : str
  max_steps : int
  name : str
  next_step_prompt : str
  special_tool_names : Optional[List[str]]
  system_prompt : str
  working_dir : str
  think() -> bool
}
class "<color:red>SearchEngineError</color>" as app.tool.web_search.SearchEngineError {
}
class "SearchSettings" as app.config.SearchSettings {
  engine : Optional[str]
}
class "StrReplaceEditor" as app.tool.str_replace_editor.StrReplaceEditor {
  _file_history : list
  description : str
  name : str
  parameters : dict
  _make_output(file_content: str, file_descriptor: str, init_line: int, expand_tabs: bool)
  execute() -> str
  insert(path: Path, insert_line: int, new_str: str)
  read_file(path: Path)
  str_replace(path: Path, old_str: str, new_str: str | None)
  undo_edit(path: Path)
  validate_path(command: str, path: Path)
  view(path: Path, view_range: list[int] | None)
  write_file(path: Path, file: str)
}
class "Terminal" as app.tool.terminal.Terminal {
  current_path : str
  description : str
  lock : Lock
  name : str
  parameters : dict
  process : Optional[asyncio.subprocess.Process]
  __aenter__()
  __aexit__(exc_type, exc_val, exc_tb)
  _handle_cd_command(command: str) -> CLIResult
  _sanitize_command(command: str) -> str
  close()
  execute(command: str) -> CLIResult
  execute_in_env(env_name: str, command: str) -> CLIResult
}
class "Terminate" as app.tool.terminate.Terminate {
  description : str
  name : str
  parameters : dict
  execute() -> str
}
class "<color:red>TokenLimitExceeded</color>" as app.exceptions.TokenLimitExceeded {
}
class "ToolCall" as app.schema.ToolCall {
  function
  id : str
  type : str
}
class "ToolCallAgent" as app.agent.toolcall.ToolCallAgent {
  available_tools
  description : str
  max_observe : Optional[Union[int, bool]]
  max_steps : int
  messages
  name : str
  next_step_prompt : str
  special_tool_names : Optional[List[str]]
  state : FINISHED
  system_prompt : str
  tool_calls : Optional[List[ToolCall]]
  tool_choices : Literal
  _handle_special_tool(name: str, result: Any)
  _is_special_tool(name: str) -> bool
  _should_finish_execution(name: str, result: Any, tool: Any) -> bool
  act() -> str
  execute_tool(command: ToolCall) -> str
  think() -> bool
}
class "ToolChoice" as app.schema.ToolChoice {
  name
}
class "ToolCollection" as app.tool.tool_collection.ToolCollection {
  tool_map
  tools : tuple
  __init__()
  __iter__()
  add_tool(tool: BaseTool)
  add_tools()
  execute() -> ToolResult
  execute_all() -> List[ToolResult]
  get_tool(name: str) -> BaseTool
  to_params() -> List[Dict[str, Any]]
}
class "<color:red>ToolError</color>" as app.exceptions.ToolError {
  message
  __init__(message)
}
class "ToolFailure" as app.tool.base.ToolFailure {
}
class "ToolResult" as app.tool.base.ToolResult {
  error : Optional[str]
  output : Optional[Any]
  system : Optional[str]
  __add__(other: 'ToolResult')
  __bool__()
  __str__()
  replace()
}
class "WebSearch" as app.tool.web_search.WebSearch {
  _search_engine : dict[str, WebSearchEngine]
  description : str
  name : str
  parameters : dict
  _get_engine_order() -> List[str]
  _perform_search_with_engine(engine: WebSearchEngine, query: str, num_results: int) -> List[str]
  execute(query: str, num_results: int) -> List[str]
}
class "WebSearchEngine" as app.tool.search.base.WebSearchEngine {
  {abstract}perform_search(query: str, num_results: int) -> list[dict]
}
class "_BashSession" as app.tool.bash._BashSession {
  _output_delay : float
  _process
  _sentinel : str
  _started : bool
  _timed_out : bool
  _timeout : float
  command : str
  __init__()
  run(command: str)
  start()
  stop()
}
app.agent.manus.Manus --|> app.agent.toolcall.ToolCallAgent
app.agent.planning.PlanningAgent --|> app.agent.toolcall.ToolCallAgent
app.agent.react.ReActAgent --|> app.agent.base.BaseAgent
app.agent.swe.SWEAgent --|> app.agent.toolcall.ToolCallAgent
app.agent.toolcall.ToolCallAgent --|> app.agent.react.ReActAgent
app.exceptions.TokenLimitExceeded --|> app.exceptions.OpenManusError
app.flow.planning.PlanningFlow --|> app.flow.base.BaseFlow
app.tool.base.CLIResult --|> app.tool.base.ToolResult
app.tool.base.ToolFailure --|> app.tool.base.ToolResult
app.tool.bash.Bash --|> app.tool.base.BaseTool
app.tool.browser_use_tool.BrowserUseTool --|> app.tool.base.BaseTool
app.tool.create_chat_completion.CreateChatCompletion --|> app.tool.base.BaseTool
app.tool.file_saver.FileSaver --|> app.tool.base.BaseTool
app.tool.planning.PlanningTool --|> app.tool.base.BaseTool
app.tool.python_execute.PythonExecute --|> app.tool.base.BaseTool
app.tool.search.baidu_search.BaiduSearchEngine --|> app.tool.search.base.WebSearchEngine
app.tool.search.duckduckgo_search.DuckDuckGoSearchEngine --|> app.tool.search.base.WebSearchEngine
app.tool.search.google_search.GoogleSearchEngine --|> app.tool.search.base.WebSearchEngine
app.tool.str_replace_editor.StrReplaceEditor --|> app.tool.base.BaseTool
app.tool.terminal.Terminal --|> app.tool.base.BaseTool
app.tool.terminate.Terminate --|> app.tool.base.BaseTool
app.tool.web_search.SearchEngineError --|> app.exceptions.ToolError
app.tool.web_search.WebSearch --|> app.tool.base.BaseTool
app.config.AppConfig --* app.config.Config : _config
app.llm.LLM --* app.agent.base.BaseAgent : llm
app.schema.AgentState --* app.agent.react.ReActAgent : state
app.schema.Function --* app.schema.ToolCall : function
app.schema.Memory --* app.agent.base.BaseAgent : memory
app.tool.bash._BashSession --* app.tool.bash.Bash : _session
app.tool.bash._BashSession --* app.tool.bash.Bash : _session
app.tool.tool_collection.ToolCollection --* app.agent.swe.SWEAgent : available_tools
app.tool.tool_collection.ToolCollection --* app.agent.toolcall.ToolCallAgent : available_tools
app.schema.AgentState --o app.agent.base.BaseAgent : state
@enduml
